<svg width="14" height="15" viewBox="0 0 14 15" fill="none" xmlns="http://www.w3.org/2000/svg">
<path d="M7 14.1499C6.071 14.1499 5.196 13.9724 4.375 13.6174C3.554 13.2619 2.839 12.7794 2.23 12.1699C1.621 11.5604 1.1385 10.8454 0.782504 10.0249C0.426504 9.2044 0.249004 8.3294 0.250004 7.3999C0.250004 6.4679 0.427504 5.59215 0.782504 4.77265C1.138 3.95265 1.6205 3.2384 2.23 2.6299C2.8395 2.0214 3.5545 1.5389 4.375 1.1824C5.196 0.827402 6.071 0.649902 7 0.649902C7.932 0.649902 8.80775 0.827402 9.62725 1.1824C10.4473 1.5379 11.1618 2.0204 11.7708 2.6299C12.3798 3.2394 12.862 3.95365 13.2175 4.77265C13.5725 5.59265 13.75 6.4684 13.75 7.3999C13.75 8.3289 13.5725 9.2039 13.2175 10.0249C12.862 10.8459 12.3795 11.5609 11.77 12.1699C11.1605 12.7789 10.4463 13.2614 9.62725 13.6174C8.80825 13.9734 7.9325 14.1509 7 14.1499ZM7 13.4059C7.44 12.8404 7.803 12.2852 8.089 11.7402C8.3745 11.1952 8.60675 10.5852 8.78575 9.91015H5.21425C5.41275 10.6232 5.64975 11.2522 5.92525 11.7972C6.20125 12.3422 6.5595 12.8784 7 13.4059ZM6.04525 13.2934C5.69525 12.8809 5.37575 12.3709 5.08675 11.7634C4.79775 11.1564 4.58275 10.5384 4.44175 9.9094H1.5655C1.9955 10.8419 2.60475 11.6069 3.39325 12.2044C4.18225 12.8014 5.06625 13.1644 6.04525 13.2934ZM7.95475 13.2934C8.93375 13.1644 9.81775 12.8014 10.6068 12.2044C11.3953 11.6069 12.0045 10.8419 12.4345 9.9094H9.559C9.369 10.5479 9.12975 11.1707 8.84125 11.7777C8.55225 12.3852 8.25675 12.8909 7.95475 13.2934ZM1.2595 9.16015H4.28575C4.22875 8.85215 4.18875 8.55215 4.16575 8.26015C4.14175 7.96865 4.12975 7.6819 4.12975 7.3999C4.12975 7.1179 4.1415 6.83115 4.165 6.53965C4.1885 6.24815 4.2285 5.94815 4.285 5.63965H1.26025C1.17875 5.89965 1.115 6.1829 1.069 6.4894C1.023 6.7954 1 7.0989 1 7.3999C1 7.7009 1.02275 8.00465 1.06825 8.31115C1.11375 8.61765 1.1775 8.9004 1.2595 9.1594M5.03575 9.1594H8.96425C9.02125 8.8519 9.06125 8.5569 9.08425 8.2744C9.10825 7.9924 9.12025 7.7009 9.12025 7.3999C9.12025 7.0989 9.1085 6.8074 9.085 6.5254C9.0615 6.2434 9.0215 5.9484 8.965 5.6404H5.035C4.9785 5.9479 4.9385 6.2429 4.915 6.5254C4.8915 6.8074 4.87975 7.0989 4.87975 7.3999C4.87975 7.7009 4.8915 7.9924 4.915 8.2744C4.9385 8.5564 4.97925 8.8514 5.03575 9.1594ZM9.715 9.1594H12.7405C12.822 8.8999 12.8858 8.61715 12.9318 8.31115C12.9773 8.00465 13 7.7009 13 7.3999C13 7.0989 12.9773 6.79515 12.9318 6.48865C12.8863 6.18215 12.8225 5.8994 12.7405 5.6404H9.71425C9.77125 5.9479 9.81125 6.24765 9.83425 6.53965C9.85825 6.83165 9.87025 7.1184 9.87025 7.3999C9.87025 7.6814 9.8585 7.96815 9.835 8.26015C9.8115 8.55215 9.7715 8.85215 9.715 9.16015M9.559 4.8904H12.4345C11.995 3.9384 11.393 3.1734 10.6285 2.5954C9.864 2.0174 8.97275 1.64965 7.95475 1.49215C8.30475 1.95265 8.6195 2.4794 8.899 3.0724C9.1785 3.6649 9.3985 4.2709 9.559 4.8904ZM5.21425 4.8904H8.78575C8.58775 4.1864 8.3435 3.5499 8.053 2.9809C7.7625 2.4119 7.4115 1.8829 7 1.3939C6.5885 1.8824 6.2375 2.4114 5.947 2.9809C5.6565 3.5504 5.41175 4.1869 5.21425 4.8904ZM1.56625 4.8904H4.44175C4.60225 4.2714 4.82225 3.6654 5.10175 3.0724C5.38125 2.4794 5.696 1.95265 6.046 1.49215C5.019 1.65015 4.1255 2.02015 3.3655 2.60215C2.6055 3.18515 2.0055 3.94765 1.5655 4.88965" fill="#9272D7"/>
</svg>

